<?xml version="1.0" encoding="utf-8"?>
<!-- Generator: Adobe Illustrator 24.3.0, SVG Export Plug-In . SVG Version: 6.00 Build 0)  -->
<svg version="1.1" id="Layer_1" xmlns="http://www.w3.org/2000/svg" xmlns:xlink="http://www.w3.org/1999/xlink" x="0px" y="0px"
	 viewBox="0 0 6 12" style="enable-background:new 0 0 6 12;" xml:space="preserve">
<style type="text/css">
	.st0{clip-path:url(#SVGID_4_);}
	.st1{clip-path:url(#SVGID_6_);fill:#9BA4AB;}
	.st2{clip-path:url(#SVGID_8_);}
	.st3{clip-path:url(#SVGID_10_);fill:#9BA4AB;}
</style>
<g>
	<g>
		<defs>
			<path id="SVGID_1_" d="M5.7,7C6,7,6.1,7.1,5.9,7.4l-2.6,4.4c-0.2,0.3-0.4,0.3-0.6,0L0.1,7.4C-0.1,7.1,0,7,0.3,7l2.1,0.4
				c0.3,0.1,0.8,0.1,1.1,0L5.7,7z"/>
		</defs>
		<clipPath id="SVGID_2_">
			<use xlink:href="#SVGID_1_"  style="overflow:visible;"/>
		</clipPath>
	</g>
</g>
<g>
	<g>
		<defs>
			<path id="SVGID_3_" d="M0.3,5C0,5.1-0.1,4.9,0.1,4.6l2.6-4.4c0.2-0.3,0.4-0.3,0.6,0l2.6,4.4C6.1,4.9,6,5.1,5.7,5L3.6,4.6
				c-0.3-0.1-0.8-0.1-1.1,0L0.3,5z"/>
		</defs>
		<clipPath id="SVGID_4_">
			<use xlink:href="#SVGID_3_"  style="overflow:visible;"/>
		</clipPath>
		<g class="st0">
			<g>
				<defs>
					<rect id="SVGID_5_" y="0" width="6" height="12"/>
				</defs>
				<clipPath id="SVGID_6_">
					<use xlink:href="#SVGID_5_"  style="overflow:visible;"/>
				</clipPath>
				<rect x="-5" y="-5" class="st1" width="16" height="15"/>
			</g>
		</g>
	</g>
	<g>
		<g>
			<defs>
				<path id="SVGID_7_" d="M5.7,7C6,7,6.1,7.1,5.9,7.4l-2.6,4.4c-0.2,0.3-0.4,0.3-0.6,0L0.1,7.4C-0.1,7.1,0,7,0.3,7l2.1,0.4
					c0.3,0.1,0.8,0.1,1.1,0L5.7,7z"/>
			</defs>
			<clipPath id="SVGID_8_">
				<use xlink:href="#SVGID_7_"  style="overflow:visible;"/>
			</clipPath>
			<g class="st2">
				<g>
					<defs>
						<rect id="SVGID_9_" x="0" y="0" width="6" height="12"/>
					</defs>
					<clipPath id="SVGID_10_">
						<use xlink:href="#SVGID_9_"  style="overflow:visible;"/>
					</clipPath>
					<rect x="-5" y="2" class="st3" width="16" height="15"/>
				</g>
			</g>
		</g>
	</g>
</g>
</svg>
